<svg xmlns="http://www.w3.org/2000/svg" xmlns:xlink="http://www.w3.org/1999/xlink" width="1123" zoomAndPan="magnify" viewBox="0 0 842.25 595.499986" height="794" preserveAspectRatio="xMidYMid meet" version="1.0"><defs><clipPath id="38a9316343"><rect x="0" width="819" y="0" height="259"/></clipPath></defs><g transform="matrix(1, 0, 0, 1, 11, 168)"><g clip-path="url(#38a9316343)"><path fill="#000000" d="M 219.734375 78.28125 L 219.734375 148.082031 L 242.832031 171.171875 L 265.929688 194.265625 L 266.097656 124.640625 L 266.265625 55.019531 L 277.652344 55 L 289.035156 54.980469 L 289.035156 193.949219 L 335.898438 193.949219 L 335.898438 124.644531 C 335.898438 69.679688 336.070312 55.328125 336.722656 55.273438 C 340.132812 54.988281 356.921875 54.859375 357.84375 55.113281 C 358.933594 55.414062 359 59.292969 359 124.691406 L 359 193.949219 L 405.203125 193.949219 L 405.203125 8.480469 L 219.734375 8.480469 Z M 13.140625 22.179688 L 13.140625 35.21875 L 59.34375 81.40625 L 59.34375 9.140625 L 13.140625 9.140625 Z M 71.886719 51.222656 L 71.886719 93.300781 L 94.984375 116.394531 L 118.085938 139.488281 L 118.085938 9.140625 L 71.886719 9.140625 Z M 130.628906 78.613281 L 130.628906 148.082031 L 176.832031 194.269531 L 176.832031 9.140625 L 130.628906 9.140625 Z M 419.722656 78.613281 L 419.722656 148.082031 L 465.925781 194.269531 L 465.925781 124.644531 L 490.683594 124.644531 L 525.660156 159.625 L 560.636719 194.609375 L 605.191406 194.609375 L 605.191406 170.523438 L 570.710938 136.035156 L 536.222656 101.542969 L 605.191406 32.566406 L 605.191406 9.140625 L 560.859375 9.140625 L 525.78125 43.792969 L 490.707031 78.445312 L 465.925781 78.445312 L 465.925781 9.140625 L 419.722656 9.140625 Z M 619.828125 78.441406 L 620.042969 147.742188 L 642.980469 170.679688 L 665.917969 193.613281 L 665.917969 159.460938 C 665.917969 132.621094 666.09375 125.289062 666.742188 125.222656 C 667.195312 125.179688 672.765625 125.078125 679.117188 125 L 690.667969 124.851562 L 725.65625 159.730469 L 760.648438 194.609375 L 805.183594 194.609375 L 805.183594 170.507812 L 782.765625 148.097656 C 770.433594 135.769531 760.625 125.511719 760.964844 125.300781 C 761.308594 125.089844 771.398438 124.941406 783.386719 124.96875 L 805.183594 125.019531 L 805.183594 9.140625 L 619.613281 9.140625 Z M 665.917969 66.894531 L 665.917969 78.445312 L 758.980469 78.445312 L 758.980469 55.34375 L 665.917969 55.34375 Z M 305.539062 222.050781 L 305.539062 229.035156 L 303.3125 227.664062 C 294.285156 222.082031 285.546875 236.191406 293.75 243.097656 C 296.351562 245.285156 301.21875 245.429688 303.796875 243.402344 L 305.539062 242.035156 L 305.539062 243.402344 C 305.539062 244.328125 305.960938 244.769531 306.859375 244.769531 C 308.136719 244.769531 308.175781 244.328125 308.175781 229.917969 C 308.175781 215.507812 308.136719 215.066406 306.859375 215.066406 C 305.621094 215.066406 305.539062 215.507812 305.539062 222.050781 M 567.722656 229.753906 C 567.902344 244.417969 567.902344 244.4375 569.386719 244.652344 L 570.871094 244.859375 L 570.871094 215.066406 L 567.546875 215.066406 Z M 682.859375 216.828125 C 682.617188 217.070312 682.417969 217.960938 682.417969 218.808594 C 682.417969 220.015625 682.777344 220.347656 684.085938 220.347656 C 685.007812 220.347656 685.929688 219.898438 686.140625 219.351562 C 686.828125 217.566406 684.164062 215.523438 682.859375 216.828125 M 226.332031 226.738281 C 225.789062 226.925781 224.675781 227.867188 223.863281 228.828125 L 222.378906 230.578125 L 222.375 228.765625 C 222.375 227.390625 222.050781 226.949219 221.054688 226.949219 C 219.796875 226.949219 219.734375 227.390625 219.734375 235.859375 C 219.734375 244.328125 219.796875 244.769531 221.054688 244.769531 C 222.257812 244.769531 222.371094 244.328125 222.375 239.652344 C 222.375 232.785156 223.703125 230 227.109375 229.71875 C 228.441406 229.605469 229.886719 229.089844 230.316406 228.574219 C 230.949219 227.808594 230.761719 227.503906 229.332031 226.960938 C 228.363281 226.589844 227.511719 226.3125 227.445312 226.339844 C 227.378906 226.371094 226.878906 226.546875 226.332031 226.738281 M 258.183594 227.375 C 255.085938 228.902344 253.394531 232.011719 253.394531 236.179688 C 253.394531 239.324219 253.632812 239.882812 255.957031 242.207031 C 258.464844 244.714844 259.914062 245.191406 263.90625 244.828125 C 268.535156 244.40625 271.867188 240.46875 271.871094 235.414062 C 271.878906 228.664062 264.4375 224.292969 258.183594 227.375 M 334.25 227.179688 C 333.160156 227.671875 331.601562 229.273438 330.785156 230.738281 C 328.238281 235.296875 329.125 240.339844 333.003906 243.390625 C 335.359375 245.242188 340.355469 245.277344 342.667969 243.460938 C 344.332031 242.152344 344.332031 242.152344 344.6875 243.515625 C 344.917969 244.398438 345.472656 244.800781 346.246094 244.652344 C 347.328125 244.445312 347.46875 243.527344 347.632812 235.6875 L 347.816406 226.949219 L 346.148438 226.949219 C 344.875 226.949219 344.480469 227.289062 344.480469 228.382812 L 344.480469 229.820312 L 342.988281 228.417969 C 341.058594 226.605469 336.828125 226.007812 334.25 227.179688 M 375.105469 227.230469 C 373.980469 227.722656 372.867188 228.625 372.628906 229.238281 C 371.261719 232.804688 373.082031 235.324219 378.464844 237.316406 C 381.992188 238.621094 382.816406 240 381.097656 241.71875 C 379.636719 243.179688 377.097656 243.066406 375.5 241.46875 C 373.941406 239.910156 373.289062 239.828125 372.257812 241.070312 C 370.910156 242.695312 374.386719 244.769531 378.445312 244.769531 C 382.492188 244.769531 384.742188 242.972656 384.742188 239.738281 C 384.742188 236.902344 383.578125 235.710938 379.460938 234.320312 C 376.175781 233.210938 375.832031 232.910156 375.832031 231.175781 C 375.832031 229.484375 376.089844 229.234375 378.039062 229.046875 C 379.390625 228.917969 380.695312 229.246094 381.40625 229.886719 C 382.527344 230.902344 384.742188 230.6875 384.742188 229.566406 C 384.742188 229.269531 383.957031 228.410156 383.003906 227.65625 C 381.015625 226.09375 378.078125 225.9375 375.105469 227.230469 M 449.703125 227.535156 C 445.710938 229.96875 444.242188 236.484375 446.753906 240.609375 C 448.792969 243.949219 450.878906 244.976562 454.9375 244.640625 C 458.351562 244.355469 462.625 242.191406 462.625 240.742188 C 462.625 239.414062 460.613281 239.417969 458.925781 240.746094 C 456.28125 242.828125 451.910156 242.652344 450.132812 240.390625 C 449.378906 239.433594 448.765625 238.097656 448.765625 237.421875 C 448.765625 236.296875 449.371094 236.1875 455.695312 236.1875 L 462.625 236.1875 L 462.625 234.175781 C 462.625 227.984375 455.210938 224.171875 449.703125 227.535156 M 528.015625 227.445312 C 524.644531 229.164062 523.09375 231.664062 523.105469 235.363281 C 523.128906 241.902344 526.710938 245.007812 533.796875 244.636719 C 537.484375 244.441406 537.542969 244.40625 537.746094 242.3125 L 537.949219 240.183594 L 536.09375 241.152344 C 532.4375 243.0625 528.117188 241.714844 526.667969 238.214844 C 525.683594 235.835938 526.097656 233.765625 528.066406 231.265625 C 529.441406 229.519531 529.726562 229.441406 533.691406 229.761719 C 537.4375 230.0625 537.871094 229.96875 537.871094 228.875 C 537.871094 226.226562 532.058594 225.382812 528.015625 227.445312 M 643.710938 226.945312 C 642.019531 227.625 640.175781 230.097656 640.175781 231.679688 C 640.175781 233.566406 642.953125 236.078125 646.441406 237.34375 C 650.039062 238.648438 651.054688 240.441406 649.03125 241.921875 C 647.316406 243.175781 645.179688 242.988281 643.804688 241.46875 C 642.386719 239.902344 642.128906 239.871094 640.492188 241.066406 C 639.304688 241.9375 639.355469 242.050781 641.523438 243.375 C 644.582031 245.238281 649.570312 245.277344 651.394531 243.449219 C 652.949219 241.898438 653.207031 237.417969 651.808594 236.257812 C 651.308594 235.84375 649.304688 234.960938 647.355469 234.296875 C 644.152344 233.210938 643.804688 232.90625 643.804688 231.175781 C 643.804688 229.484375 644.066406 229.234375 646.011719 229.046875 C 647.40625 228.914062 648.671875 229.246094 649.453125 229.953125 C 650.675781 231.058594 652.714844 230.875 652.714844 229.65625 C 652.714844 229.308594 651.933594 228.410156 650.976562 227.65625 C 649.179688 226.242188 646.179688 225.949219 643.710938 226.945312 M 756.011719 227.191406 C 750.121094 229.859375 748.910156 238.101562 753.703125 242.894531 C 756.308594 245.496094 761.222656 245.574219 764.210938 243.0625 L 766.242188 241.351562 L 766.242188 243.0625 C 766.242188 244.328125 766.582031 244.769531 767.5625 244.769531 C 768.816406 244.769531 768.882812 244.328125 768.882812 235.859375 C 768.882812 227.390625 768.816406 226.949219 767.5625 226.949219 C 766.675781 226.949219 766.242188 227.390625 766.242188 228.289062 C 766.242188 229.625 766.238281 229.625 764.425781 228.324219 C 761.980469 226.566406 758.445312 226.089844 756.011719 227.191406 M 796.125 227.589844 C 791.753906 230.257812 793.019531 234.933594 798.636719 236.859375 C 802.53125 238.191406 803.203125 238.679688 803.203125 240.164062 C 803.203125 242.761719 799.183594 243.582031 796.914062 241.449219 C 795.402344 240.03125 793.304688 240.265625 793.304688 241.851562 C 793.304688 244.074219 800.863281 245.714844 803.816406 244.132812 C 804.46875 243.785156 805.367188 242.621094 805.8125 241.542969 C 807.144531 238.328125 805.652344 236.136719 801.050781 234.550781 C 797.101562 233.191406 795.84375 231.628906 797.289062 229.886719 C 798.347656 228.613281 801.527344 228.667969 802.84375 229.984375 C 804.496094 231.632812 806.59375 230.414062 805.339844 228.53125 C 803.71875 226.105469 799.300781 225.65625 796.125 227.589844 M 487.222656 230.742188 C 488.8125 232.832031 490.3125 234.875 490.554688 235.289062 C 490.792969 235.703125 489.480469 237.929688 487.628906 240.238281 C 484.523438 244.117188 484.375 244.457031 485.710938 244.65625 C 487.371094 244.90625 489.148438 243.488281 491.082031 240.359375 C 491.824219 239.152344 492.632812 238.175781 492.875 238.179688 C 493.121094 238.1875 494.285156 239.671875 495.46875 241.480469 C 497.09375 243.972656 498.015625 244.769531 499.261719 244.769531 C 500.167969 244.769531 500.90625 244.546875 500.90625 244.273438 C 500.90625 244 499.546875 242.046875 497.886719 239.933594 C 496.226562 237.816406 495 235.734375 495.164062 235.308594 C 495.328125 234.882812 496.851562 232.828125 498.550781 230.742188 L 501.640625 226.949219 L 499.679688 226.949219 C 498.089844 226.949219 497.257812 227.574219 495.273438 230.285156 L 492.824219 233.617188 L 490.578125 230.285156 C 488.707031 227.503906 488 226.949219 486.332031 226.949219 L 484.328125 226.949219 Z M 600.574219 233.929688 C 600.574219 240.765625 600.613281 240.949219 602.503906 242.839844 C 604.359375 244.695312 605.910156 245.105469 609.8125 244.773438 C 614.199219 244.402344 615.753906 241.308594 615.753906 232.953125 C 615.753906 226.988281 615.742188 226.949219 614.105469 226.949219 C 612.460938 226.949219 612.453125 226.980469 612.453125 233.070312 C 612.453125 240.378906 611.625 242.128906 608.164062 242.128906 C 604.703125 242.128906 603.875 240.378906 603.875 233.070312 C 603.875 226.980469 603.863281 226.949219 602.222656 226.949219 L 600.574219 226.949219 Z M 682.5625 235.695312 C 682.742188 244.195312 682.789062 244.445312 684.230469 244.652344 C 685.710938 244.859375 685.71875 244.816406 685.71875 235.90625 L 685.71875 226.949219 L 682.378906 226.949219 Z M 714.125 227.398438 C 714.195312 228.914062 721.964844 244.4375 722.652344 244.4375 C 723.261719 244.4375 731.257812 228.34375 731.257812 227.117188 C 731.257812 226.976562 730.484375 226.957031 729.53125 227.070312 C 728.019531 227.253906 727.496094 228.058594 725.296875 233.550781 L 722.785156 239.820312 L 721.804688 237.507812 C 721.265625 236.238281 720.113281 233.417969 719.242188 231.238281 C 717.910156 227.914062 717.371094 227.246094 715.878906 227.070312 C 714.898438 226.957031 714.109375 227.105469 714.125 227.398438 M 336.816406 229.574219 C 334.453125 230.53125 332.597656 233.492188 332.597656 236.308594 C 332.597656 239.898438 334.875 242.128906 338.539062 242.128906 C 342.261719 242.128906 344.480469 239.90625 344.480469 236.175781 C 344.480469 232.777344 343.648438 231.195312 341.191406 229.925781 C 339.027344 228.804688 338.769531 228.785156 336.816406 229.574219 M 450.445312 230.992188 C 449.492188 232.125 448.851562 233.195312 449.019531 233.363281 C 449.550781 233.894531 457.609375 234.046875 458.976562 233.550781 C 460.195312 233.113281 460.148438 232.949219 458.203125 231.003906 C 455.410156 228.210938 452.789062 228.207031 450.445312 230.992188 M 257.964844 231.519531 C 255.792969 233.6875 255.511719 235.90625 257.03125 238.84375 C 260.023438 244.628906 269.234375 242.378906 269.234375 235.859375 C 269.234375 232.347656 266.332031 229.589844 262.636719 229.589844 C 260.484375 229.589844 259.476562 230.003906 257.964844 231.519531 M 295.8125 230.886719 C 293.980469 232.59375 293.4375 234.472656 293.960938 237.273438 C 294.578125 240.550781 296.414062 242.128906 299.625 242.128906 C 303.445312 242.128906 305.539062 239.910156 305.539062 235.859375 C 305.539062 233.523438 305.167969 232.457031 303.917969 231.210938 C 301.855469 229.148438 297.851562 228.988281 295.8125 230.886719 M 755.84375 231.074219 C 751.644531 235.574219 754.097656 242.128906 759.980469 242.128906 C 764.175781 242.128906 765.914062 239.742188 765.65625 234.34375 C 765.453125 230.148438 758.785156 227.925781 755.84375 231.074219 " fill-opacity="1" fill-rule="evenodd"/></g></g></svg>